<svg xmlns="http://www.w3.org/2000/svg" xmlns:xlink="http://www.w3.org/1999/xlink" width="40" zoomAndPan="magnify" viewBox="0 0 30 30.000001" height="40" preserveAspectRatio="xMidYMid meet" version="1.0"><defs><clipPath id="354de58da5"><path d="M 0.484375 0 L 29.515625 0 L 29.515625 29.03125 L 0.484375 29.03125 Z M 0.484375 0 " clip-rule="nonzero"/></clipPath><clipPath id="b404e5980b"><path d="M 3.894531 2.902344 L 24.945312 2.902344 L 24.945312 23.953125 L 3.894531 23.953125 Z M 3.894531 2.902344 " clip-rule="nonzero"/></clipPath><clipPath id="eb926ddeaf"><path d="M 16.671875 12.300781 L 26.105469 12.300781 L 26.105469 26 L 16.671875 26 Z M 16.671875 12.300781 " clip-rule="nonzero"/></clipPath></defs><g clip-path="url(#354de58da5)"><path fill="#ffffff" d="M 0.484375 0 L 29.515625 0 L 29.515625 29.03125 L 0.484375 29.03125 Z M 0.484375 0 " fill-opacity="1" fill-rule="nonzero"/><path fill="#100d28" d="M 0.484375 0 L 29.515625 0 L 29.515625 29.03125 L 0.484375 29.03125 Z M 0.484375 0 " fill-opacity="1" fill-rule="nonzero"/></g><g clip-path="url(#b404e5980b)"><path fill="#ffffff" d="M 23.847656 14.875 C 24.253906 14.875 24.585938 14.542969 24.585938 14.136719 L 24.585938 12.351562 C 24.585938 11.945312 24.253906 11.613281 23.847656 11.613281 L 23.082031 11.613281 C 22.675781 11.613281 22.246094 11.296875 22.125 10.90625 L 21.472656 9.316406 C 21.28125 8.960938 21.355469 8.433594 21.644531 8.144531 L 22.1875 7.601562 C 22.472656 7.316406 22.476562 6.84375 22.1875 6.558594 L 20.925781 5.292969 C 20.636719 5.007812 20.167969 5.007812 19.878906 5.292969 L 19.335938 5.835938 C 19.050781 6.125 18.519531 6.203125 18.164062 6.011719 L 16.574219 5.355469 C 16.1875 5.234375 15.867188 4.804688 15.867188 4.398438 L 15.867188 3.632812 C 15.867188 3.226562 15.535156 2.894531 15.128906 2.894531 L 13.34375 2.894531 C 12.9375 2.894531 12.605469 3.226562 12.605469 3.632812 L 12.605469 4.398438 C 12.605469 4.804688 12.289062 5.234375 11.898438 5.355469 L 10.308594 6.011719 C 9.953125 6.203125 9.425781 6.125 9.136719 5.835938 L 8.59375 5.292969 C 8.308594 5.007812 7.835938 5.007812 7.550781 5.292969 L 6.285156 6.558594 C 6 6.84375 6 7.316406 6.285156 7.601562 L 6.828125 8.144531 C 7.117188 8.433594 7.195312 8.960938 7.003906 9.316406 L 6.347656 10.90625 C 6.230469 11.296875 5.796875 11.613281 5.390625 11.613281 L 4.625 11.613281 C 4.21875 11.613281 3.886719 11.945312 3.886719 12.351562 L 3.886719 14.136719 C 3.886719 14.542969 4.21875 14.875 4.625 14.875 L 5.390625 14.875 C 5.796875 14.875 6.230469 15.195312 6.347656 15.582031 L 7.003906 17.171875 C 7.195312 17.53125 7.117188 18.058594 6.828125 18.34375 L 6.285156 18.886719 C 6 19.175781 6 19.644531 6.285156 19.933594 L 7.550781 21.195312 C 7.835938 21.484375 8.308594 21.484375 8.59375 21.195312 L 9.136719 20.652344 C 9.425781 20.367188 9.953125 20.289062 10.308594 20.480469 L 11.898438 21.132812 C 12.289062 21.253906 12.605469 21.683594 12.605469 22.089844 L 12.605469 22.855469 C 12.605469 23.261719 12.9375 23.597656 13.34375 23.597656 L 15.128906 23.597656 C 15.535156 23.597656 15.867188 23.261719 15.867188 22.855469 L 15.867188 22.089844 C 15.867188 21.683594 16.1875 21.253906 16.574219 21.132812 L 18.164062 20.480469 C 18.523438 20.289062 19.050781 20.363281 19.335938 20.652344 L 19.878906 21.195312 C 20.167969 21.484375 20.636719 21.484375 20.925781 21.195312 L 22.1875 19.933594 C 22.476562 19.644531 22.476562 19.175781 22.1875 18.886719 L 21.644531 18.34375 C 21.355469 18.058594 21.28125 17.53125 21.472656 17.171875 L 22.125 15.582031 C 22.246094 15.195312 22.675781 14.875 23.082031 14.875 Z M 14.238281 17.503906 C 11.886719 17.503906 9.976562 15.597656 9.976562 13.246094 C 9.976562 10.894531 11.886719 8.988281 14.238281 8.988281 C 16.589844 8.988281 18.496094 10.894531 18.496094 13.246094 C 18.496094 15.597656 16.589844 17.503906 14.238281 17.503906 Z M 14.238281 17.503906 " fill-opacity="1" fill-rule="nonzero"/></g><g clip-path="url(#eb926ddeaf)"><path fill="#ff914d" d="M 20.035156 25.964844 C 20.035156 25.964844 20.039062 25.96875 20.042969 25.96875 C 20.042969 25.96875 17.609375 26.175781 16.875 22.980469 C 16.691406 22.179688 16.667969 21.355469 16.785156 20.542969 C 16.992188 19.121094 17.871094 18.179688 17.871094 18.179688 C 17.566406 20.742188 20.34375 21.578125 20.34375 21.578125 C 20.257812 21.480469 20.214844 21.429688 20.167969 21.375 C 19.078125 20.136719 18.320312 18.75 18.136719 17.117188 C 17.980469 15.683594 18.28125 14.355469 19.253906 13.226562 C 19.53125 12.898438 19.875 12.628906 20.1875 12.332031 C 18.140625 15.332031 22.941406 18.03125 22.941406 18.03125 C 22.832031 17.902344 22.34375 17.070312 22.3125 17.019531 C 22.085938 16.574219 21.910156 16.113281 21.832031 15.613281 C 21.757812 15.117188 21.753906 14.617188 22.0625 14.128906 C 22.050781 14.898438 22.128906 15.128906 22.59375 15.726562 C 22.871094 16.078125 23.164062 16.417969 23.433594 16.777344 C 23.472656 16.832031 23.515625 16.886719 23.554688 16.941406 C 25.460938 19.800781 24.507812 22.171875 24.507812 22.171875 C 25.433594 20.941406 25.742188 19.796875 25.742188 19.796875 C 25.96875 20.445312 26.074219 21.078125 26.082031 21.722656 C 26.09375 22.835938 25.851562 23.875 25.125 24.773438 C 24.683594 25.3125 24.121094 25.6875 23.367188 25.882812 C 24.257812 24.921875 24.96875 23.941406 24.914062 22.628906 C 24.65625 22.902344 24.136719 23.335938 23.667969 23.628906 C 23.46875 23.753906 23.203125 23.628906 23.179688 23.402344 C 22.984375 21.316406 22.371094 19.558594 20.441406 18.425781 C 20.484375 18.585938 20.507812 18.667969 20.53125 18.75 C 20.699219 19.304688 20.890625 19.859375 21.03125 20.421875 C 21.21875 21.167969 21.375 21.921875 21.214844 22.695312 C 21.109375 23.222656 20.804688 23.460938 20.25 23.492188 C 19.589844 23.527344 19.03125 23.3125 18.542969 22.894531 C 18.457031 22.824219 18.375 22.75 18.253906 22.648438 C 18.613281 25.105469 19.914062 25.894531 20.035156 25.964844 Z M 20.035156 25.964844 " fill-opacity="1" fill-rule="nonzero"/></g></svg>